<?xml version="1.0" encoding="UTF-8"?>
<svg id="Layer_1" data-name="Layer 1" xmlns="http://www.w3.org/2000/svg" viewBox="0 0 141.56 309.44">
  <defs>
    <style>
      .cls-1 {
        fill: #231f20;
      }

      .cls-2 {
        fill: #fff;
        stroke: #231f20;
        stroke-miterlimit: 10;
      }
    </style>
  </defs>
  <path class="cls-2" d="M139.54,183.35c-12.72,0-23.03-8.91-23.03-19.9s10.31-19.9,23.03-19.9"/>
  <rect class="cls-2" x="1.42" y="24.6" width="115.08" height="262.96" transform="translate(117.93 312.15) rotate(180)"/>
  <path class="cls-2" d="M.5,308.94v-115.27c31.57,0,61.87,12.15,84.19,33.76,22.32,21.61,34.87,50.95,34.87,81.51H.5Z"/>
  <path class="cls-2" d="M.5,308.94v-58.38c17.01,0,33.35,6.15,45.38,17.1,12.03,10.94,18.8,25.8,18.8,41.28H.5Z"/>
  <path class="cls-2" d="M1.24,22.08h115.27c0,31.57-12.15,61.87-33.76,84.19-21.61,22.32-50.95,34.87-81.51,34.87V22.08Z"/>
  <path class="cls-2" d="M1.74,22.08h58.38c0,35.2-26.35,64.17-58.38,64.17-.16,0-.33,0-.49,0l.49-64.17Z"/>
  <g>
    <path class="cls-1" d="M125.1,158.82h4.41c.96,0,1.68.23,2.16.69s.72,1.11.72,1.95-.26,1.54-.78,2.03-1.32.73-2.39.73h-1.45v3.19h-2.67v-8.59ZM127.76,162.48h.65c.51,0,.87-.09,1.08-.27s.31-.41.31-.68-.09-.5-.27-.69-.52-.28-1.01-.28h-.76v1.92Z"/>
    <path class="cls-1" d="M133.56,158.82h7.51v1.72l-4.82,5.03h5v1.85h-8.15v-1.78l4.77-4.97h-4.31v-1.83Z"/>
  </g>
  <g>
    <path class="cls-1" d="M37.28,116.24l2.33.7c-.16.65-.4,1.2-.74,1.63s-.75.77-1.25.99-1.13.33-1.9.33c-.93,0-1.7-.14-2.29-.41-.59-.27-1.1-.75-1.53-1.43s-.64-1.56-.64-2.62c0-1.42.38-2.51,1.13-3.28.76-.76,1.83-1.14,3.21-1.14,1.08,0,1.93.22,2.55.66s1.08,1.11,1.38,2.02l-2.34.52c-.08-.26-.17-.45-.26-.57-.15-.2-.33-.36-.54-.47s-.46-.16-.72-.16c-.6,0-1.06.24-1.38.73-.24.36-.36.92-.36,1.69,0,.95.14,1.6.43,1.96s.7.53,1.22.53.89-.14,1.15-.43.45-.7.57-1.24Z"/>
    <path class="cls-1" d="M40.89,111.16h2.65v6.47h4.14v2.12h-6.8v-8.59Z"/>
    <path class="cls-1" d="M48.68,111.16h7.51v1.72l-4.82,5.03h5v1.85h-8.15v-1.78l4.77-4.97h-4.31v-1.83Z"/>
  </g>
  <g>
    <path class="cls-1" d="M57.37,247.58l2.33.6c-.16.55-.4,1.02-.74,1.39s-.75.65-1.25.84c-.5.19-1.13.28-1.9.28-.93,0-1.7-.12-2.29-.35s-1.1-.63-1.53-1.21-.64-1.32-.64-2.23c0-1.21.38-2.13,1.13-2.78s1.83-.97,3.21-.97c1.08,0,1.93.19,2.55.56.62.37,1.08.94,1.38,1.71l-2.34.44c-.08-.22-.17-.38-.26-.49-.15-.17-.33-.3-.54-.4s-.46-.14-.72-.14c-.6,0-1.06.21-1.38.62-.24.3-.36.78-.36,1.43,0,.81.14,1.36.43,1.66.29.3.7.45,1.22.45s.89-.12,1.15-.36.45-.59.57-1.05Z"/>
    <path class="cls-1" d="M61.03,250.56v-7.29h4.42c.82,0,1.45.06,1.88.18s.78.34,1.05.66.4.72.4,1.18c0,.4-.1.75-.3,1.05-.2.29-.48.53-.84.71-.23.12-.54.21-.93.29.32.09.55.18.69.27.1.06.24.19.42.38.19.2.31.35.37.45l1.29,2.11h-3l-1.42-2.23c-.18-.29-.34-.48-.48-.56-.19-.11-.41-.17-.65-.17h-.23v2.96h-2.67ZM63.69,246.23h1.12c.12,0,.36-.03.7-.1.18-.03.32-.11.43-.23.11-.12.17-.26.17-.42,0-.24-.09-.42-.26-.54s-.51-.19-.99-.19h-1.17v1.48Z"/>
    <path class="cls-1" d="M70.11,243.27h7.51v1.46l-4.82,4.27h5v1.57h-8.15v-1.51l4.77-4.22h-4.31v-1.56Z"/>
  </g>
  <g>
    <path class="cls-1" d="M13.68,278.96h6.56v1.85h-3.9v1.5h3.33v1.73h-3.33v3.51h-2.67v-8.59Z"/>
    <path class="cls-1" d="M21.7,287.55v-8.59h4.42c.82,0,1.45.07,1.88.21s.78.4,1.05.78.4.84.4,1.39c0,.48-.1.89-.3,1.23s-.48.63-.84.84c-.23.14-.54.25-.93.34.32.11.55.21.69.32.1.07.24.22.42.45s.31.41.37.53l1.29,2.49h-3l-1.42-2.62c-.18-.34-.34-.56-.48-.66-.19-.13-.41-.2-.65-.2h-.23v3.49h-2.67ZM24.37,282.44h1.12c.12,0,.36-.04.7-.12.18-.04.32-.12.43-.27s.17-.31.17-.5c0-.28-.09-.49-.26-.64s-.51-.22-.99-.22h-1.17v1.75Z"/>
    <path class="cls-1" d="M30.79,278.96h7.51v1.72l-4.82,5.03h5v1.85h-8.15v-1.78l4.77-4.97h-4.31v-1.83Z"/>
  </g>
  <g>
    <path class="cls-1" d="M12.79,41.9h6.56v1.85h-3.9v1.5h3.33v1.73h-3.33v3.51h-2.67v-8.59Z"/>
    <path class="cls-1" d="M20.78,41.9h2.65v6.47h4.14v2.12h-6.8v-8.59Z"/>
    <path class="cls-1" d="M28.57,41.9h7.51v1.72l-4.82,5.03h5v1.85h-8.15v-1.78l4.77-4.97h-4.31v-1.83Z"/>
  </g>
  <g>
    <path class="cls-1" d="M60.97,158.82h3.49l1.35,5.23,1.34-5.23h3.49v8.59h-2.17v-6.55l-1.67,6.55h-1.97l-1.67-6.55v6.55h-2.17v-8.59Z"/>
    <path class="cls-1" d="M72.11,158.82h7.51v1.72l-4.82,5.03h5v1.85h-8.15v-1.78l4.77-4.98h-4.31v-1.83Z"/>
  </g>
</svg>